<svg data-v-423bf9ae="" xmlns="http://www.w3.org/2000/svg" viewBox="0 0 616 90" class="iconLeft"><!----><!----><!----><g data-v-423bf9ae="" id="650b9c41-b25b-42b7-a491-12c69179b805" fill="#E8E8EE" transform="matrix(5.876591554929072,0,0,5.876591554929072,94.7818420251445,-5.803134357111894)"><path d="M5.95 13.51L5.95 12.74L5.95 12.74Q5.43 13.24 4.82 13.48L4.82 13.48L4.82 13.48Q4.21 13.71 3.60 13.69L3.60 13.69L3.60 13.69Q2.98 13.66 2.41 13.41L2.41 13.41L2.41 13.41Q1.83 13.15 1.39 12.66L1.39 12.66L1.39 12.66Q0.95 12.18 0.69 11.51L0.69 11.51L0.69 11.51Q0.42 10.84 0.42 9.98L0.42 9.98L0.42 9.98Q0.42 9.16 0.71 8.47L0.71 8.47L0.71 8.47Q0.99 7.78 1.48 7.29L1.48 7.29L1.48 7.29Q1.96 6.79 2.58 6.52L2.58 6.52L2.58 6.52Q3.19 6.26 3.86 6.29L3.86 6.29L3.86 6.29Q4.56 6.31 4.96 6.58L4.96 6.58L4.96 6.58Q5.36 6.85 5.54 7.20L5.54 7.20L5.54 7.20Q5.71 7.55 5.71 7.90L5.71 7.90L5.71 7.90Q5.70 8.26 5.57 8.48L5.57 8.48L5.57 8.48Q5.33 8.15 4.91 8.03L4.91 8.03L4.91 8.03Q4.48 7.91 4.10 7.91L4.10 7.91L4.10 7.91Q3.47 7.91 3.04 8.22L3.04 8.22L3.04 8.22Q2.62 8.53 2.40 8.99L2.40 8.99L2.40 8.99Q2.18 9.45 2.18 9.99L2.18 9.99L2.18 9.99Q2.18 10.53 2.39 10.99L2.39 10.99L2.39 10.99Q2.60 11.45 3.02 11.76L3.02 11.76L3.02 11.76Q3.44 12.07 4.09 12.07L4.09 12.07L4.09 12.07Q4.63 12.07 4.99 11.82L4.99 11.82L4.99 11.82Q5.35 11.58 5.56 11.19L5.56 11.19L5.56 11.19Q5.77 10.79 5.86 10.31L5.86 10.31L5.86 10.31Q5.95 9.83 5.95 9.35L5.95 9.35L5.95 3.74L5.95 3.74Q6.78 3.77 7.25 4.19L7.25 4.19L7.25 4.19Q7.71 4.61 7.71 5.17L7.71 5.17L7.71 13.51L5.95 13.51ZM14.06 10.72L14.06 10.72L14.06 10.72Q13.30 10.92 12.68 10.86L12.68 10.86L12.68 10.86Q12.05 10.81 11.65 10.56L11.65 10.56L11.65 10.56Q11.26 10.32 11.12 9.91L11.12 9.91L11.12 9.91Q10.99 9.49 11.20 8.97L11.20 8.97L11.20 8.97Q11.63 9.34 12.21 9.37L12.21 9.37L12.21 9.37Q12.78 9.41 13.31 9.35L13.31 9.35L13.31 9.35Q13.76 9.31 13.99 9.16L13.99 9.16L13.99 9.16Q14.22 9.00 14.28 8.80L14.28 8.80L14.28 8.80Q14.34 8.60 14.24 8.37L14.24 8.37L14.24 8.37Q14.14 8.15 13.92 7.97L13.92 7.97L13.92 7.97Q13.71 7.78 13.39 7.67L13.39 7.67L13.39 7.67Q13.08 7.56 12.70 7.57L12.70 7.57L12.70 7.57Q12.29 7.60 11.93 7.77L11.93 7.77L11.93 7.77Q11.56 7.94 11.28 8.23L11.28 8.23L11.28 8.23Q11.00 8.53 10.84 8.92L10.84 8.92L10.84 8.92Q10.67 9.31 10.65 9.79L10.65 9.79L10.65 9.79Q10.64 10.18 10.74 10.56L10.74 10.56L10.74 10.56Q10.85 10.93 11.06 11.25L11.06 11.25L11.06 11.25Q11.27 11.56 11.56 11.78L11.56 11.78L11.56 11.78Q11.86 12.00 12.24 12.05L12.24 12.05L12.24 12.05Q12.77 12.15 13.33 11.98L13.33 11.98L13.33 11.98Q13.89 11.82 14.32 11.37L14.32 11.37L15.79 12.08L15.79 12.08Q15.22 12.94 14.43 13.31L14.43 13.31L14.43 13.31Q13.65 13.68 12.64 13.68L12.64 13.68L12.64 13.68Q11.70 13.68 11.00 13.35L11.00 13.35L11.00 13.35Q10.29 13.02 9.82 12.47L9.82 12.47L9.82 12.47Q9.35 11.93 9.12 11.24L9.12 11.24L9.12 11.24Q8.89 10.54 8.90 9.82L8.90 9.82L8.90 9.82Q8.92 9.10 9.18 8.41L9.18 8.41L9.18 8.41Q9.45 7.71 9.95 7.18L9.95 7.18L9.95 7.18Q10.51 6.58 11.26 6.33L11.26 6.33L11.26 6.33Q12.01 6.08 12.80 6.08L12.80 6.08L12.80 6.08Q13.66 6.08 14.29 6.37L14.29 6.37L14.29 6.37Q14.92 6.66 15.32 7.12L15.32 7.12L15.32 7.12Q15.71 7.57 15.83 8.13L15.83 8.13L15.83 8.13Q15.96 8.68 15.81 9.20L15.81 9.20L15.81 9.20Q15.67 9.72 15.23 10.13L15.23 10.13L15.23 10.13Q14.80 10.54 14.06 10.72ZM19.77 13.52L16.67 6.29L18.54 6.29L20.36 10.56L21.73 7.39L21.73 7.39Q21.87 7.08 22.08 6.83L22.08 6.83L22.08 6.83Q22.29 6.57 22.57 6.40L22.57 6.40L22.57 6.40Q22.85 6.23 23.22 6.18L23.22 6.18L23.22 6.18Q23.59 6.13 24.05 6.23L24.05 6.23L20.93 13.52L19.77 13.52ZM33.12 7.07L33.12 7.07L33.12 7.07Q32.93 6.55 32.51 6.19L32.51 6.19L32.51 6.19Q32.09 5.82 31.55 5.62L31.55 5.62L31.55 5.62Q31.01 5.42 30.41 5.37L30.41 5.37L30.41 5.37Q29.81 5.32 29.27 5.43L29.27 5.43L29.27 5.43Q28.70 5.56 28.24 5.86L28.24 5.86L28.24 5.86Q27.79 6.16 27.47 6.59L27.47 6.59L27.47 6.59Q27.16 7.01 26.99 7.53L26.99 7.53L26.99 7.53Q26.82 8.05 26.82 8.61L26.82 8.61L26.82 8.61Q26.82 9.66 27.27 10.40L27.27 10.40L27.27 10.40Q27.72 11.13 28.41 11.52L28.41 11.52L28.41 11.52Q29.09 11.91 29.90 11.94L29.90 11.94L29.90 11.94Q30.72 11.97 31.44 11.63L31.44 11.63L31.44 11.63Q32.07 11.35 32.86 10.54L32.86 10.54L34.06 11.84L34.06 11.84Q33.59 12.33 33.14 12.68L33.14 12.68L33.14 12.68Q32.69 13.03 32.21 13.26L32.21 13.26L32.21 13.26Q31.72 13.48 31.18 13.59L31.18 13.59L31.18 13.59Q30.65 13.71 30.02 13.71L30.02 13.71L30.02 13.71Q28.88 13.71 28.01 13.34L28.01 13.34L28.01 13.34Q27.15 12.98 26.53 12.37L26.53 12.37L26.53 12.37Q25.91 11.76 25.56 10.97L25.56 10.97L25.56 10.97Q25.20 10.18 25.09 9.32L25.09 9.32L25.09 9.32Q24.98 8.47 25.13 7.62L25.13 7.62L25.13 7.62Q25.28 6.78 25.69 6.05L25.69 6.05L25.69 6.05Q26.08 5.36 26.58 4.89L26.58 4.89L26.58 4.89Q27.08 4.42 27.66 4.14L27.66 4.14L27.66 4.14Q28.24 3.85 28.89 3.72L28.89 3.72L28.89 3.72Q29.54 3.60 30.24 3.58L30.24 3.58L30.24 3.58Q30.73 3.58 31.27 3.68L31.27 3.68L31.27 3.68Q31.81 3.77 32.29 3.96L32.29 3.96L32.29 3.96Q32.77 4.14 33.15 4.44L33.15 4.44L33.15 4.44Q33.53 4.73 33.68 5.12L33.68 5.12L33.68 5.12Q33.84 5.52 33.73 6.00L33.73 6.00L33.73 6.00Q33.61 6.48 33.12 7.07ZM40.11 3.54L40.11 3.54L40.11 3.54Q42.18 3.54 43.65 5.04L43.65 5.04L43.65 5.04Q45.14 6.52 45.14 8.68L45.14 8.68L45.14 8.68Q45.14 10.82 43.68 12.28L43.68 12.28L43.68 12.28Q42.21 13.75 40.12 13.75L40.12 13.75L40.12 13.75Q37.93 13.75 36.48 12.24L36.48 12.24L36.48 12.24Q35.04 10.74 35.04 8.64L35.04 8.64L35.04 8.64Q35.04 8.43 35.06 8.18L35.06 8.18L35.06 8.18Q35.08 7.94 35.13 7.67L35.13 7.67L35.13 7.67Q35.17 7.41 35.24 7.16L35.24 7.16L35.24 7.16Q35.31 6.92 35.42 6.71L35.42 6.71L35.42 6.71Q35.64 6.26 36.05 5.98L36.05 5.98L36.05 5.98Q36.46 5.70 36.91 5.60L36.91 5.60L36.91 5.60Q37.37 5.50 37.82 5.58L37.82 5.58L37.82 5.58Q38.28 5.66 38.61 5.89L38.61 5.89L38.61 5.89Q38.95 6.13 39.09 6.55L39.09 6.55L39.09 6.55Q39.24 6.96 39.10 7.52L39.10 7.52L39.10 7.52Q38.84 7.20 38.45 7.11L38.45 7.11L38.45 7.11Q38.07 7.03 37.72 7.20L37.72 7.20L37.72 7.20Q37.37 7.36 37.13 7.78L37.13 7.78L37.13 7.78Q36.89 8.20 36.92 8.89L36.92 8.89L36.92 8.89Q36.97 10.35 38.07 11.23L38.07 11.23L38.07 11.23Q38.96 11.97 40.12 11.97L40.12 11.97L40.12 11.97Q41.43 11.97 42.35 11.02L42.35 11.02L42.35 11.02Q43.27 10.05 43.27 8.67L43.27 8.67L43.27 8.67Q43.27 7.28 42.35 6.31L42.35 6.31L42.35 6.31Q41.40 5.36 40.08 5.36L40.08 5.36L40.08 5.36Q39.47 5.36 38.96 5.54L38.96 5.54L38.96 5.54Q38.71 5.32 38.37 5.19L38.37 5.19L38.37 5.19Q38.02 5.07 37.64 5.05L37.64 5.05L37.64 5.05Q37.25 5.04 36.87 5.14L36.87 5.14L36.87 5.14Q36.48 5.24 36.15 5.45L36.15 5.45L36.15 5.45Q36.74 4.72 37.56 4.23L37.56 4.23L37.56 4.23Q38.75 3.54 40.11 3.54ZM46.26 13.52L46.26 5.21L46.26 5.21Q46.26 4.91 46.35 4.65L46.35 4.65L46.35 4.65Q46.44 4.38 46.62 4.17L46.62 4.17L46.62 4.17Q46.80 3.96 47.07 3.84L47.07 3.84L47.07 3.84Q47.35 3.72 47.71 3.72L47.71 3.72L48.02 3.72L52.25 10.18L52.25 3.72L54.10 3.72L54.10 13.52L52.32 13.52L48.10 7.10L48.10 13.52L46.26 13.52ZM55.50 13.52L55.50 5.21L55.50 5.21Q55.50 4.91 55.59 4.65L55.59 4.65L55.59 4.65Q55.68 4.38 55.86 4.17L55.86 4.17L55.86 4.17Q56.04 3.96 56.31 3.84L56.31 3.84L56.31 3.84Q56.59 3.72 56.95 3.72L56.95 3.72L57.26 3.72L61.49 10.18L61.49 3.72L63.34 3.72L63.34 13.52L61.56 13.52L57.34 7.10L57.34 13.52L55.50 13.52ZM66.35 3.72L70.38 3.72L70.38 5.56L66.60 5.56L66.60 7.73L70.38 7.73L70.38 7.73Q70.36 8.05 70.28 8.37L70.28 8.37L70.28 8.37Q70.20 8.69 70.01 8.95L70.01 8.95L70.01 8.95Q69.83 9.20 69.55 9.36L69.55 9.36L69.55 9.36Q69.26 9.52 68.84 9.52L68.84 9.52L66.60 9.52L66.60 11.69L70.38 11.69L70.38 13.52L64.74 13.52L64.74 5.42L64.74 5.42Q64.74 4.61 65.19 4.17L65.19 4.17L65.19 4.17Q65.65 3.72 66.35 3.72L66.35 3.72ZM79.73 7.07L79.73 7.07L79.73 7.07Q79.53 6.55 79.11 6.19L79.11 6.19L79.11 6.19Q78.69 5.82 78.16 5.62L78.16 5.62L78.16 5.62Q77.62 5.42 77.01 5.37L77.01 5.37L77.01 5.37Q76.41 5.32 75.88 5.43L75.88 5.43L75.88 5.43Q75.31 5.56 74.85 5.86L74.85 5.86L74.85 5.86Q74.40 6.16 74.08 6.59L74.08 6.59L74.08 6.59Q73.77 7.01 73.60 7.53L73.60 7.53L73.60 7.53Q73.43 8.05 73.43 8.61L73.43 8.61L73.43 8.61Q73.43 9.66 73.88 10.40L73.88 10.40L73.88 10.40Q74.33 11.13 75.01 11.52L75.01 11.52L75.01 11.52Q75.70 11.91 76.51 11.94L76.51 11.94L76.51 11.94Q77.32 11.97 78.05 11.63L78.05 11.63L78.05 11.63Q78.68 11.35 79.46 10.54L79.46 10.54L80.67 11.84L80.67 11.84Q80.19 12.33 79.74 12.68L79.74 12.68L79.74 12.68Q79.30 13.03 78.81 13.26L78.81 13.26L78.81 13.26Q78.33 13.48 77.79 13.59L77.79 13.59L77.79 13.59Q77.25 13.71 76.62 13.71L76.62 13.71L76.62 13.71Q75.49 13.71 74.62 13.34L74.62 13.34L74.62 13.34Q73.75 12.98 73.14 12.37L73.14 12.37L73.14 12.37Q72.52 11.76 72.16 10.97L72.16 10.97L72.16 10.97Q71.81 10.18 71.69 9.32L71.69 9.32L71.69 9.32Q71.58 8.47 71.74 7.62L71.74 7.62L71.74 7.62Q71.89 6.78 72.30 6.05L72.30 6.05L72.30 6.05Q72.69 5.36 73.19 4.89L73.19 4.89L73.19 4.89Q73.68 4.42 74.26 4.14L74.26 4.14L74.26 4.14Q74.84 3.85 75.50 3.72L75.50 3.72L75.50 3.72Q76.15 3.60 76.85 3.58L76.85 3.58L76.85 3.58Q77.34 3.58 77.88 3.68L77.88 3.68L77.88 3.68Q78.41 3.77 78.90 3.96L78.90 3.96L78.90 3.96Q79.38 4.14 79.76 4.44L79.76 4.44L79.76 4.44Q80.14 4.73 80.29 5.12L80.29 5.12L80.29 5.12Q80.44 5.52 80.33 6.00L80.33 6.00L80.33 6.00Q80.22 6.48 79.73 7.07ZM81.93 5.57L81.93 3.72L88.63 3.72L88.63 3.72Q88.63 4.16 88.51 4.50L88.51 4.50L88.51 4.50Q88.38 4.84 88.17 5.08L88.17 5.08L88.17 5.08Q87.96 5.32 87.69 5.45L87.69 5.45L87.69 5.45Q87.42 5.57 87.11 5.57L87.11 5.57L85.99 5.57L85.99 13.52L84.10 13.52L84.10 5.57L81.93 5.57Z"></path></g><!----><g data-v-423bf9ae="" id="c04aaa2e-048a-4f9c-86cc-9af6f56c9dc9" transform="matrix(1.25,0,0,1.25,-20.900002002716064,-13.999999523162842)" stroke="none" fill="#E8E8EE"><path d="M48 47.3c9.7 0 17.7-7.9 17.7-17.7 0-9.7-8-17.6-17.7-17.6s-17.7 7.9-17.7 17.7c0 9.7 8 17.6 17.7 17.6zM64 48.4c-4.4 3.9-10 6.1-16 6.1s-11.6-2.1-16-6.1c-8.4 1.1-14.9 8.3-14.9 16.9V84h61.8V65.3c0-8.6-6.5-15.9-14.9-16.9zM39.7 72.7l-2.8 2.9-6.6-6.6 6.6-6.6 2.8 2.9L36 69l3.7 3.7zm7.8 6.7l-3.8-1.1 5.7-19.9 3.8 1.1-5.7 19.9zm11.6-3.8l-2.8-2.9L60 69l-3.7-3.7 2.8-2.9 6.6 6.6-6.6 6.6z"></path></g><!----></svg>